<?xml version="1.0" encoding="UTF-8"?>
<svg xmlns="http://www.w3.org/2000/svg" version="1.1" height="283.465pt" viewBox="0 0 283.465 283.465" xmlns:inkscape="http://www.inkscape.org/namespaces/inkscape" width="283.465pt" xmlns:xlink="http://www.w3.org/1999/xlink">
 <defs/>
 <g id="New Layer 1" inkscape:label="New Layer 1" inkscape:groupmode="layer">
  <path transform="translate(54.3945, 26.7323)" style="fill:#ffffff; fill-rule:evenodd;stroke:none;" d="M0.0166238 225.717 L0.450348 226.03 L0.974312 226.356 L1.59002 226.693 L2.29899 227.033 L3.10272 227.375 L4.00272 227.714 L5.0005 228.044 L6.09757 228.363 L7.29544 228.664 L8.5956 228.946 L9.99959 229.204 L11.5089 229.433 L13.125 229.629 L14.8494 229.788 L16.6838 229.905 L18.6295 229.978 L20.688 230 L22.8609 229.968 L23.0622 229.959 L23.2625 229.968 L25.4354 230 L27.4939 229.978 L29.4396 229.906 L31.2739 229.788 L32.9984 229.63 L34.6145 229.434 L36.1238 229.205 L37.5278 228.947 L38.8279 228.665 L40.0258 228.362 L41.1229 228.044 L42.1207 227.713 L43.0207 227.375 L43.8244 227.033 L44.5334 226.693 L45.1491 226.357 L45.673 226.03 L46.1068 225.717 L46.1186 225.484 L46.1234 224.971 L46.1212 224.186 L46.1124 223.14 L46.0971 221.84 L46.0756 220.297 L46.0481 218.52 L46.0149 216.517 L45.9761 214.299 L45.9319 211.874 L45.8827 209.251 L45.8286 206.441 L45.7698 203.451 L45.7067 200.292 L45.6393 196.973 L45.568 193.502 L45.4929 189.889 L45.4143 186.144 L45.3325 182.276 L45.2475 178.293 L45.1597 174.205 L45.0694 170.022 L44.9766 165.752 L44.8816 161.405 L44.7847 156.99 L44.6861 152.516 L44.5861 147.993 L44.4847 143.43 L44.3823 138.836 L44.2791 134.22 L44.1754 129.592 L44.0712 124.96 L43.967 120.335 L43.8628 115.724 L43.7589 111.139 L43.6556 106.587 L43.5531 102.078 L43.4515 97.6214 L43.3512 93.2263 L43.2523 88.9019 L43.1551 84.6576 L43.0597 80.5025 L42.9665 76.446 L42.8757 72.4971 L42.7874 68.6653 L42.7019 64.9597 L42.6195 61.3896 L42.5403 57.9642 L42.4646 54.6929 L42.3925 51.5847 L42.3244 48.649 L42.2605 45.895 L42.2009 43.332 L42.1459 40.9693 L42.0958 38.8159 L42.0507 36.8813 L42.0109 35.1746 L41.9766 33.7051 L41.948 32.4821 L41.9254 31.5148 L41.909 30.8123 L41.899 30.3841 L41.8956 30.2393 L43.2382 28.9194 L44.593 28.205 L44.8401 27.4946 L44.9792 26.096 L45.0213 24.2781 L44.977 22.3096 L44.8571 20.4592 L44.6725 18.9956 L44.4338 18.1878 L43.3071 17.3606 L41.6227 16.9956 L41.4646 16.6875 L41.3396 16.0608 L41.2117 15.1622 L41.0445 14.0384 L40.8019 12.7362 L40.4477 11.3021 L39.9457 9.78304 L39.2596 8.22556 L38.3533 6.67641 L37.1905 5.1823 L35.7351 3.78991 L33.9508 2.54596 L31.8014 1.49715 L29.2508 0.690174 L26.2628 0.171742 L23.106 0.00469262 L23.106 6.02288e-14 L23.0617 0.00234635 L23.0173 0 L23.0173 0.00469277 L19.8607 0.171741 L16.8725 0.690174 L14.322 1.49715 L12.1727 2.54596 L10.3883 3.78992 L8.93289 5.18229 L7.77012 6.67641 L6.8638 8.22556 L6.17772 9.78304 L5.67566 11.3021 L5.32145 12.7361 L5.07886 14.0384 L4.91169 15.1622 L4.78374 16.0608 L4.65879 16.6875 L4.50066 16.9955 L2.81627 17.3606 L1.68956 18.1878 L1.4509 18.9956 L1.26626 20.4591 L1.1464 22.3095 L1.1021 24.2781 L1.14414 26.0959 L1.28329 27.4946 L1.53035 28.205 L2.88514 28.9195 L4.22781 30.2394 L4.22442 30.3841 L4.2144 30.8124 L4.19796 31.5147 L4.17535 32.4821 L4.14678 33.7051 L4.11248 35.1746 L4.07267 36.8813 L4.02758 38.8159 L3.97744 40.9692 L3.92248 43.3321 L3.8629 45.895 L3.79895 48.649 L3.73085 51.5847 L3.65882 54.6928 L3.58309 57.9642 L3.50389 61.3896 L3.42144 64.9597 L3.33596 68.6653 L3.24768 72.4971 L3.15683 76.4459 L3.06363 80.5025 L2.96831 84.6577 L2.8711 88.9019 L2.77221 93.2263 L2.67188 97.6214 L2.57032 102.078 L2.46777 106.587 L2.36446 111.139 L2.2606 115.724 L2.15642 120.335 L2.05215 124.96 L1.94802 129.592 L1.84424 134.22 L1.74105 138.836 L1.63868 143.43 L1.53733 147.994 L1.43724 152.517 L1.33864 156.99 L1.24176 161.405 L1.14681 165.752 L1.05402 170.022 L0.96363 174.205 L0.875848 178.292 L0.790908 182.275 L0.709033 186.144 L0.630448 189.889 L0.555381 193.502 L0.484056 196.973 L0.416698 200.292 L0.353535 203.452 L0.29479 206.44 L0.24069 209.251 L0.191458 211.874 L0.147323 214.299 L0.10851 216.517 L0.0752423 218.52 L0.0477473 220.297 L0.0262499 221.841 L0.0109759 223.14 L0.00215077 224.186 L0 224.971 L0.00474918 225.484 L0.0166238 225.717 Z"/>
  <path transform="translate(51.9173, 82.8007) rotate(315.012)" style="fill:#ff0000; fill-rule:evenodd;stroke:none;" d="M12.767 0 L23.3373 3.55271e-15 L23.3427 12.7724 L36.1152 12.7724 L36.1197 23.3427 L23.3472 23.3427 L23.3527 36.1152 L12.7824 36.1152 L12.777 23.3427 L0.00451373 23.3427 L0 12.7724 L12.7724 12.7724 L12.767 0 Z"/>
  <path transform="translate(51.9173, 122.156) rotate(315.012)" style="fill:#ff0000; fill-rule:evenodd;stroke:none;" d="M12.767 0 L23.3372 2.66454e-15 L23.3427 12.7725 L36.1152 12.7725 L36.1197 23.3427 L23.3472 23.3427 L23.3527 36.1152 L12.7825 36.1152 L12.777 23.3427 L0.00451369 23.3427 L0 12.7725 L12.7725 12.7725 L12.767 0 Z"/>
  <path transform="translate(51.9173, 161.511) rotate(315.012)" style="fill:#ff0000; fill-rule:evenodd;stroke:none;" d="M12.767 1.59872e-14 L23.3372 0 L23.3427 12.7725 L36.1152 12.7725 L36.1197 23.3427 L23.3472 23.3427 L23.3527 36.1152 L12.7825 36.1152 L12.777 23.3427 L0.00451369 23.3427 L0 12.7725 L12.7725 12.7725 L12.767 1.59872e-14 Z"/>
  <path id="Text12+U0" transform="translate(121.592, 26.904)" style="fill:#ffffff; fill-rule:evenodd;stroke:none;" d="M0 0 L8.70524 0 L10.2027 0.00109694 L11.6813 0.00438776 L13.1413 0.00987245 L14.5825 0.017551 L16.005 0.0274235 L17.4087 0.0394898 L18.7937 0.05375 L20.1599 0.0702041 L21.5075 0.088852 L22.8362 0.109694 L24.1463 0.13273 L25.4376 0.157959 L26.7102 0.185383 L27.964 0.215 L29.1991 0.246811 L30.4154 0.280816 L31.6131 0.317015 L32.792 0.355408 L33.9521 0.395995 L35.0935 0.438776 L36.2162 0.48375 L37.3201 0.530918 L38.4053 0.580281 L39.4718 0.631837 L40.5195 0.685587 L41.5485 0.741531 L42.5587 0.799668 L43.5502 0.86 L44.523 0.922526 L45.4771 0.987245 L46.4124 1.05416 L47.3289 1.12327 L48.2267 1.19457 L49.1058 1.26806 L49.9662 1.34375 L50.8078 1.42163 L51.6307 1.50171 L52.4348 1.58398 L53.2202 1.66844 L53.9869 1.7551 L54.7348 1.84395 L55.464 1.935 L56.1744 2.02824 L56.8662 2.12367 L57.5391 2.2213 L58.1934 2.32112 L58.8289 2.42314 L59.4456 2.52735 L60.0437 2.63375 L60.623 2.74235 L61.1835 2.85314 L61.7253 2.96612 L62.2484 3.0813 L62.7528 3.19867 L63.2384 3.31824 L63.7052 3.44 L64.8927 3.76354 L66.0684 4.10933 L67.2323 4.47736 L68.3844 4.86762 L69.5248 5.28013 L70.6533 5.71488 L71.7702 6.17186 L72.8752 6.65109 L73.9685 7.15256 L75.05 7.67627 L76.1197 8.22222 L77.1776 8.79041 L78.2238 9.38084 L79.2582 9.99352 L80.2809 10.6284 L81.2917 11.2856 L82.2908 11.965 L83.2781 12.6666 L84.2537 13.3905 L85.2175 14.1366 L86.1695 14.905 L87.1097 15.6956 L88.0381 16.5084 L88.9548 17.3435 L89.8597 18.2008 L90.7529 19.0803 L91.6342 19.9821 L92.5038 20.9062 L93.3617 21.8525 L94.2077 22.821 L95.042 23.8118 L95.8645 24.8248 L96.6752 25.86 L97.2589 26.6323 L97.8295 27.4146 L98.3869 28.2068 L98.9312 29.009 L99.4624 29.8211 L99.9805 30.6432 L100.485 31.4752 L100.977 32.3172 L101.456 33.1692 L101.922 34.0311 L102.374 34.903 L102.814 35.7848 L103.24 36.6766 L103.653 37.5783 L104.053 38.49 L104.44 39.4116 L104.814 40.3432 L105.174 41.2848 L105.522 42.2363 L105.856 43.1978 L106.178 44.1692 L106.486 45.1506 L106.781 46.1419 L107.063 47.1432 L107.332 48.1544 L107.588 49.1756 L107.83 50.2068 L108.06 51.2479 L108.276 52.299 L108.48 53.36 L108.67 54.431 L108.847 55.5119 L109.011 56.6028 L109.162 57.7036 L109.299 58.8144 L109.424 59.9352 L109.536 61.0659 L109.634 62.2066 L109.719 63.3572 L109.791 64.5178 L109.85 65.6883 L109.896 66.8688 L109.929 68.0592 L109.949 69.2596 L109.955 70.47 L109.949 71.6368 L109.932 72.7931 L109.902 73.9392 L109.861 75.0748 L109.808 76.2001 L109.743 77.315 L109.666 78.4195 L109.577 79.5137 L109.477 80.5975 L109.365 81.6709 L109.241 82.734 L109.105 83.7867 L108.957 84.829 L108.798 85.8609 L108.626 86.8825 L108.443 87.8937 L108.248 88.8945 L108.041 89.885 L107.823 90.8651 L107.593 91.8348 L107.35 92.7942 L107.096 93.7431 L106.831 94.6818 L106.553 95.61 L106.264 96.5279 L105.962 97.4354 L105.649 98.3325 L105.324 99.2193 L104.988 100.096 L104.639 100.962 L104.279 101.817 L103.907 102.663 L103.523 103.498 L103.127 104.322 L102.72 105.136 L102.3 105.94 L101.596 107.234 L100.874 108.503 L100.135 109.746 L99.3796 110.963 L98.6066 112.155 L97.8165 113.322 L97.0092 114.463 L96.1849 115.579 L95.3434 116.669 L94.4847 117.733 L93.609 118.773 L92.7161 119.786 L91.8061 120.774 L90.879 121.737 L89.9347 122.674 L88.9733 123.586 L87.9948 124.472 L86.9991 125.332 L85.9863 126.168 L84.9564 126.977 L83.9094 127.761 L82.8452 128.52 L81.8616 129.194 L80.8767 129.848 L79.8903 130.483 L78.9026 131.099 L77.9135 131.696 L76.9231 132.273 L75.9312 132.832 L74.938 133.371 L73.9434 133.89 L72.9475 134.391 L71.9502 134.872 L70.9515 135.334 L69.9514 135.776 L68.95 136.2 L67.9472 136.604 L66.943 136.989 L65.9375 137.355 L64.9306 137.701 L63.9223 138.028 L62.9126 138.336 L61.9016 138.625 L60.8892 138.894 L59.8754 139.144 L58.8602 139.375 L58.1781 139.508 L57.4837 139.638 L56.7768 139.765 L56.0576 139.889 L55.3261 140.011 L54.5821 140.13 L53.8259 140.247 L53.0572 140.36 L52.2762 140.471 L51.4828 140.579 L50.677 140.684 L49.8589 140.787 L49.0284 140.887 L48.1855 140.984 L47.3303 141.078 L46.4627 141.17 L45.5828 141.259 L44.6905 141.345 L43.7858 141.429 L42.8687 141.509 L41.9393 141.587 L40.9975 141.663 L40.0434 141.735 L39.0769 141.805 L38.098 141.872 L37.1068 141.936 L36.1032 141.998 L35.0872 142.057 L34.0588 142.113 L33.0181 142.166 L31.9651 142.217 L30.8996 142.265 L29.8218 142.31 L28.7317 142.352 L27.6291 142.392 L26.5142 142.429 L25.387 142.463 L24.2473 142.494 L23.0953 142.523 L21.931 142.549 L20.7542 142.572 L19.5651 142.593 L18.3637 142.611 L17.1499 142.626 L15.9237 142.638 L14.6851 142.648 L13.4342 142.655 L12.1709 142.659 L10.8952 142.66 L0 142.66 L0 103.75 L6.05024 103.75 L7.51511 103.747 L8.95348 103.74 L10.3654 103.726 L11.7508 103.708 L13.1097 103.684 L14.4421 103.656 L15.7481 103.622 L17.0275 103.582 L18.2805 103.538 L19.507 103.488 L20.707 103.433 L21.8805 103.372 L23.0275 103.307 L24.1481 103.236 L25.2421 103.16 L26.3097 103.079 L27.3508 102.992 L28.3654 102.9 L29.3535 102.803 L30.3151 102.701 L31.2502 102.594 L32.1589 102.481 L33.0411 102.363 L33.8967 102.24 L34.7259 102.111 L35.5286 101.977 L36.3048 101.838 L37.0546 101.694 L37.7778 101.545 L38.4746 101.39 L39.1448 101.23 L39.7886 101.065 L40.4059 100.894 L40.9967 100.719 L41.5611 100.538 L42.0989 100.351 L42.6102 100.16 L43.9071 99.6257 L45.1632 99.05 L46.3787 98.4329 L47.5535 97.7743 L48.6877 97.0743 L49.7812 96.3329 L50.834 95.55 L51.8462 94.7257 L52.8177 93.86 L53.7485 92.9529 L54.6387 92.0043 L55.4882 91.0143 L56.2971 89.9829 L57.0652 88.91 L57.663 88.0002 L58.2245 87.0731 L58.7499 86.1288 L59.2389 85.1672 L59.6918 84.1883 L60.1084 83.1921 L60.4888 82.1787 L60.833 81.1481 L61.1409 80.1001 L61.4126 79.0349 L61.6481 77.9524 L61.8474 76.8527 L62.0104 75.7357 L62.1372 74.6014 L62.2278 73.4499 L62.2821 72.2811 L62.3002 71.095 L62.2819 69.8559 L62.2268 68.6388 L62.135 67.4434 L62.0064 66.27 L61.8412 65.1184 L61.6392 63.9888 L61.4005 62.8809 L61.125 61.795 L60.8129 60.7309 L60.464 59.6888 L60.0784 58.6684 L59.656 57.67 L59.197 56.6934 L58.7012 55.7388 L58.1687 54.8059 L57.5994 53.895 L56.9935 53.0059 L56.3508 52.1388 L55.6714 51.2934 L54.9552 50.47 L54.1271 49.586 L53.2748 48.7397 L52.3984 47.931 L51.498 47.1599 L50.5734 46.4264 L49.6247 45.7306 L48.6519 45.0723 L47.655 44.4517 L46.634 43.8687 L45.5889 43.3234 L44.5197 42.8157 L43.4264 42.3456 L42.3089 41.9131 L41.1674 41.5182 L40.0018 41.161 L38.812 40.8414 L37.5982 40.5594 L36.3602 40.315 L35.8431 40.2216 L35.2952 40.1311 L34.7166 40.0434 L34.1073 39.9586 L33.4673 39.8767 L32.7966 39.7976 L32.0952 39.7215 L31.3631 39.6482 L30.6002 39.5778 L29.8067 39.5102 L28.9825 39.4456 L28.1275 39.3838 L27.2419 39.3248 L26.3255 39.2688 L25.3784 39.2156 L24.4006 39.1653 L23.3922 39.1179 L22.353 39.0733 L21.2831 39.0317 L20.1825 38.9929 L19.0511 38.9569 L17.8891 38.9239 L16.6964 38.8937 L15.473 38.8664 L14.2188 38.842 L12.934 38.8204 L11.6184 38.8017 L10.2722 38.7859 L8.89519 38.773 L7.48751 38.7629 L6.04913 38.7557 L4.58004 38.7514 L3.08024 38.75 L0 38.75 L0 0 Z"/>
  <path transform="translate(4.25197, 4.25197)" style="fill:none;stroke-width:8.50394; stroke-linecap:butt; stroke-linejoin:miter; stroke-dasharray:none; stroke:#ffffff;" d="M0 22.6772 C0 10.1529 10.1529 0 22.6772 0 L252.283 0 C264.808 0 274.961 10.1529 274.961 22.6772 L274.961 252.283 C274.961 264.808 264.808 274.961 252.283 274.961 L22.6772 274.961 C10.1529 274.961 0 264.808 0 252.283 L0 22.6772 Z"/>
 </g>
</svg>
